<svg xmlns="http://www.w3.org/2000/svg" width="881" height="1220" viewBox="0 0 881 1220">
  <defs>
    <style>
      .cls-1 {
        fill: #026caf;
        fill-rule: evenodd;
        opacity: 0.25;
      }
    </style>
  </defs>
  <path class="cls-1" d="M855.252,721.377a25.111,25.111,0,0,1-12.147-3.123l-130.023,129.1a25.249,25.249,0,1,1-39.183-.135L543.216,715.705a25.145,25.145,0,0,1-31.372.355L379.515,847.445a25.085,25.085,0,0,1,.442,28.24L511.05,1007.61a25.232,25.232,0,1,1-.334,40.08L378.157,1179.31a25.249,25.249,0,1,1-39.667-.14L206.58,1046.43a25.233,25.233,0,1,1,.3-39.68L338.185,876.364a25.052,25.052,0,0,1,.563-29.7L225.232,732.428l-17.6-17.711a25.2,25.2,0,0,1-35.7-34.966L40.739,547.725a25.227,25.227,0,1,1-15.4-45.192l0,0a25.1,25.1,0,0,1,14.9,4.909l132.64-131.7a25.038,25.038,0,0,1,.1-30.5L40.747,212.171a25.23,25.23,0,1,1,.3-39.679L173.879,40.6A25.195,25.195,0,0,1,193.708-.217h0a25.2,25.2,0,0,1,19.724,40.95l131.146,131.98a25.244,25.244,0,1,1-.337,41.363L212.649,344.73a25.083,25.083,0,0,1,.37,31.151l131.524,132.36a25.218,25.218,0,0,1,35.851,35.116L512.176,675.976a25.144,25.144,0,0,1,29.2-.766L673.821,543.7a25.247,25.247,0,1,1,40.67-.853l129.781,130.6A25.226,25.226,0,1,1,855.252,721.377Zm-679.179-46a25.16,25.16,0,0,1,12.738-5.525l0.471-139.04-138.818-.469a25.082,25.082,0,0,1-5.422,13.174ZM44.656,511.546a25.115,25.115,0,0,1,5.674,12.778L189.3,524.793l0.472-139.237a25.149,25.149,0,0,1-12.728-5.467ZM177.174,340.921a25.128,25.128,0,0,1,12.339-5.333l0.474-139.633-139.629-.471a25.089,25.089,0,0,1-5.31,12.476Zm0.965-296.074L45.271,176.778a25.078,25.078,0,0,1,5.166,12.688l139.571,0.47,0.475-139.912A25.116,25.116,0,0,1,178.139,44.847ZM507.555,711.84a25.085,25.085,0,0,1-5.332-12.774L362.968,698.6,362.5,836.948a25.143,25.143,0,0,1,12.986,6.014ZM376.057,880.3a25.15,25.15,0,0,1-13.729,6.557l-0.466,137.357,139.26,0.47a25.11,25.11,0,0,1,5.554-12.93Zm-2.141,294.744,132.511-131.57a25.082,25.082,0,0,1-5.331-12.77l-139.254-.47-0.473,139.55A25.088,25.088,0,0,1,373.916,1175.04ZM357.443,552.647a25.122,25.122,0,0,1-12.345-5.178L212.131,679.5a25.076,25.076,0,0,1,5.091,12.587l139.746,0.471Zm-69.28,567.333,54.6,54.95a25.029,25.029,0,0,1,12.58-5.17l0.473-139.55-139.626-.47a25.057,25.057,0,0,1-5.311,12.47ZM211.1,1011.03a25.092,25.092,0,0,1,5.166,12.69l139.57,0.47L356.305,887a25.132,25.132,0,0,1-14.086-6.154ZM302.64,801.785l40.28,40.535a25.14,25.14,0,0,1,13.559-5.548l0.469-138.2-139.8-.472a25.088,25.088,0,0,1-5.236,12.376ZM194.834,669.758a25.122,25.122,0,0,1,13.037,5.388L340.8,543.169a25.071,25.071,0,0,1-5.09-11.863l-140.408-.475ZM209.139,44.95A25.107,25.107,0,0,1,196.5,50.09l-0.474,139.867L333.8,190.421a25.111,25.111,0,0,1,6.266-13.716Zm130.64,165.076a25.1,25.1,0,0,1-6.011-13.586l-137.759-.464-0.473,139.47a25.106,25.106,0,0,1,12.79,5.093ZM208.822,380.194a25.133,25.133,0,0,1-13.024,5.429l-0.473,139.19,140.21,0.473a25.053,25.053,0,0,1,4.884-12.658ZM376.1,547.573a25.1,25.1,0,0,1-12.638,5.14L362.989,692.58l139.26,0.469a25.115,25.115,0,0,1,5.554-12.936ZM664.894,829.612l13.362,13.447a25.1,25.1,0,0,1,12.256-4.935l0.475-140.112-138.513-.468a25.049,25.049,0,0,1-5.086,13.819Zm13.123-281.595L545.93,679.175a25.132,25.132,0,0,1,6.172,12.349l138.9,0.469,0.47-138.5A25.132,25.132,0,0,1,678.017,548.017ZM696.533,838.15a25.1,25.1,0,0,1,12.225,5.009L838.169,714.673a25.146,25.146,0,0,1-8.051-16.192l-133.11-.449Zm13.923-290.822a25.13,25.13,0,0,1-12.957,5.986l-0.471,138.7,133.271,0.45a25.206,25.206,0,0,1,8.79-15.686ZM25.343,166.985h0Z"/>
</svg>
