<svg width="10" height="10" viewBox="0 0 10 10" fill="none" xmlns="http://www.w3.org/2000/svg">
<path d="M6.46291 5L8.80666 2.65625C9.11135 2.375 9.11135 1.90625 8.80666 1.625L8.29104 1.10938C8.00979 0.804688 7.54104 0.804688 7.25979 1.10938L4.91604 3.45312L2.54885 1.10938C2.2676 0.804688 1.79885 0.804688 1.5176 1.10938L1.00197 1.625C0.697287 1.90625 0.697287 2.375 1.00197 2.65625L3.34572 5L1.00197 7.36719C0.697287 7.64844 0.697287 8.11719 1.00197 8.39844L1.5176 8.91406C1.79885 9.21875 2.2676 9.21875 2.54885 8.91406L4.91604 6.57031L7.25979 8.91406C7.54104 9.21875 8.00979 9.21875 8.29104 8.91406L8.80666 8.39844C9.11135 8.11719 9.11135 7.64844 8.80666 7.36719L6.46291 5Z" fill="white"/>
</svg>
