<svg width="12" height="12" viewBox="0 0 12 12" fill="none" xmlns="http://www.w3.org/2000/svg">
<path d="M10.416 4.875H7.04104V1.5C7.04104 1.10156 6.68947 0.75 6.29104 0.75H5.54104C5.11916 0.75 4.79104 1.10156 4.79104 1.5V4.875H1.41604C0.994162 4.875 0.666037 5.22656 0.666037 5.625V6.375C0.666037 6.79688 0.994162 7.125 1.41604 7.125H4.79104V10.5C4.79104 10.9219 5.11916 11.25 5.54104 11.25H6.29104C6.68947 11.25 7.04104 10.9219 7.04104 10.5V7.125H10.416C10.8145 7.125 11.166 6.79688 11.166 6.375V5.625C11.166 5.22656 10.8145 4.875 10.416 4.875Z" fill="white"/>
</svg>
